G04*
G04 #@! TF.GenerationSoftware,Altium Limited,Altium Designer,24.4.1 (13)*
G04*
G04 Layer_Physical_Order=1*
G04 Layer_Color=255*
%FSLAX44Y44*%
%MOMM*%
G71*
G04*
G04 #@! TF.SameCoordinates,44DCB5E1-04CF-47D5-A710-08A0CD88592B*
G04*
G04*
G04 #@! TF.FilePolarity,Positive*
G04*
G01*
G75*
%ADD11R,4.5000X1.5000*%
%ADD12R,4.5000X1.0000*%
%ADD16C,0.1500*%
%ADD17O,1.0000X1.8000*%
%ADD18C,0.4000*%
G36*
X249533Y117788D02*
X253892Y116466D01*
X257909Y114319D01*
X261430Y111430D01*
X264319Y107909D01*
X266466Y103892D01*
X267788Y99533D01*
X268228Y95064D01*
X268216Y95000D01*
Y25000D01*
X268228Y24936D01*
X267788Y20467D01*
X266466Y16108D01*
X264319Y12091D01*
X261430Y8571D01*
X257909Y5681D01*
X253892Y3534D01*
X249533Y2212D01*
X245065Y1771D01*
X245000Y1784D01*
X184577Y1784D01*
X183500Y3054D01*
Y9480D01*
X160000D01*
X136500D01*
Y3054D01*
X136500Y2250D01*
X135423Y1784D01*
X131784D01*
Y118216D01*
X135423D01*
X136500Y117750D01*
X136500Y116946D01*
Y110520D01*
X160000D01*
X183500D01*
Y116946D01*
X183500Y117750D01*
X184577Y118216D01*
X245000D01*
X245065Y118229D01*
X249533Y117788D01*
D02*
G37*
%LPC*%
G36*
X183500Y107980D02*
X161270D01*
Y100750D01*
X183500D01*
Y107980D01*
D02*
G37*
G36*
X158730D02*
X136500D01*
Y100750D01*
X158730D01*
Y107980D01*
D02*
G37*
G36*
X238097Y113000D02*
X236903D01*
X235801Y112543D01*
X234957Y111699D01*
X234500Y110597D01*
Y109403D01*
X234957Y108301D01*
X235716Y107542D01*
Y72500D01*
X235851Y71817D01*
X236238Y71238D01*
X237000Y70477D01*
Y69403D01*
X237457Y68301D01*
X238301Y67457D01*
X239403Y67000D01*
X240597D01*
X241699Y67457D01*
X242543Y68301D01*
X243000Y69403D01*
Y70597D01*
X242543Y71699D01*
X241699Y72543D01*
X240597Y73000D01*
X239523D01*
X239284Y73239D01*
Y107542D01*
X240043Y108301D01*
X240500Y109403D01*
Y110597D01*
X240043Y111699D01*
X239199Y112543D01*
X238097Y113000D01*
D02*
G37*
G36*
X256270Y69865D02*
Y61270D01*
X261117D01*
Y64000D01*
X260652Y66341D01*
X259326Y68326D01*
X257341Y69652D01*
X256270Y69865D01*
D02*
G37*
G36*
X253730D02*
X252659Y69652D01*
X250674Y68326D01*
X249348Y66341D01*
X248883Y64000D01*
Y61270D01*
X253730D01*
Y69865D01*
D02*
G37*
G36*
X183500Y66000D02*
X136500D01*
Y54000D01*
X183500D01*
Y58216D01*
X187542D01*
X188301Y57457D01*
X189403Y57000D01*
X190597D01*
X191699Y57457D01*
X192543Y58301D01*
X193000Y59403D01*
Y60597D01*
X192543Y61699D01*
X191699Y62543D01*
X190597Y63000D01*
X189403D01*
X188301Y62543D01*
X187542Y61784D01*
X183500D01*
Y66000D01*
D02*
G37*
G36*
X261117Y58730D02*
X256270D01*
Y50135D01*
X257341Y50348D01*
X259326Y51674D01*
X260652Y53659D01*
X261117Y56000D01*
Y58730D01*
D02*
G37*
G36*
X253730D02*
X248883D01*
Y56000D01*
X249348Y53659D01*
X250674Y51674D01*
X252659Y50348D01*
X253730Y50135D01*
Y58730D01*
D02*
G37*
G36*
X230000Y70118D02*
X227659Y69652D01*
X225674Y68326D01*
X224348Y66341D01*
X223883Y64000D01*
Y56000D01*
X224348Y53659D01*
X225674Y51674D01*
X227659Y50348D01*
X230000Y49882D01*
X232341Y50348D01*
X234326Y51674D01*
X235652Y53659D01*
X236117Y56000D01*
Y64000D01*
X235652Y66341D01*
X234326Y68326D01*
X232341Y69652D01*
X230000Y70118D01*
D02*
G37*
G36*
X205000D02*
X202659Y69652D01*
X200674Y68326D01*
X199348Y66341D01*
X198883Y64000D01*
Y56000D01*
X199348Y53659D01*
X200674Y51674D01*
X202659Y50348D01*
X205000Y49882D01*
X207341Y50348D01*
X209326Y51674D01*
X210652Y53659D01*
X211117Y56000D01*
Y64000D01*
X210652Y66341D01*
X209326Y68326D01*
X207341Y69652D01*
X205000Y70118D01*
D02*
G37*
G36*
X183500Y19250D02*
X161270D01*
Y12020D01*
X183500D01*
Y19250D01*
D02*
G37*
G36*
X158730D02*
X136500D01*
Y12020D01*
X158730D01*
Y19250D01*
D02*
G37*
%LPD*%
D11*
X160000Y10750D02*
D03*
Y109250D02*
D03*
D12*
Y60000D02*
D03*
D16*
X237500Y72500D02*
X240000Y70000D01*
X237500Y72500D02*
Y110000D01*
X160000Y60000D02*
X190000D01*
D17*
X255000D02*
D03*
X230000D02*
D03*
X205000D02*
D03*
D18*
X240000Y70000D02*
D03*
X237500Y110000D02*
D03*
X190000Y60000D02*
D03*
M02*
