G04*
G04 #@! TF.GenerationSoftware,Altium Limited,Altium Designer,25.1.2 (22)*
G04*
G04 Layer_Color=32896*
%FSLAX44Y44*%
%MOMM*%
G71*
G04*
G04 #@! TF.SameCoordinates,AE164387-2BA8-4131-8792-411A74241D84*
G04*
G04*
G04 #@! TF.FilePolarity,Positive*
G04*
G01*
G75*
%ADD10C,0.0200*%
%ADD30C,0.1000*%
%ADD31R,0.2000X1.2000*%
G36*
X257500Y112518D02*
Y107482D01*
X252500Y110018D01*
X257500Y112518D01*
D02*
G37*
D10*
X226314Y15724D02*
Y14224D01*
X225564D01*
X225314Y14474D01*
Y15474D01*
X225564Y15724D01*
X226314D01*
X223815Y14224D02*
X224814D01*
X223815Y15224D01*
Y15474D01*
X224065Y15724D01*
X224565D01*
X224814Y15474D01*
X226060Y38330D02*
Y36830D01*
X225310D01*
X225060Y37080D01*
Y38080D01*
X225310Y38330D01*
X226060D01*
X224561Y36830D02*
X224061D01*
X224311D01*
Y38330D01*
X224561Y38080D01*
X229242Y115719D02*
X228242D01*
X228742D01*
Y114220D01*
X227743D02*
Y115719D01*
X226993D01*
X226743Y115470D01*
Y114970D01*
X226993Y114720D01*
X227743D01*
X226243Y114220D02*
X225743D01*
X225993D01*
Y115719D01*
X226243Y115470D01*
X204604Y115719D02*
X203604D01*
X204104D01*
Y114220D01*
X203104D02*
Y115719D01*
X202355D01*
X202105Y115470D01*
Y114970D01*
X202355Y114720D01*
X203104D01*
X201605Y115470D02*
X201355Y115719D01*
X200855D01*
X200605Y115470D01*
Y115220D01*
X200855Y114970D01*
X201105D01*
X200855D01*
X200605Y114720D01*
Y114470D01*
X200855Y114220D01*
X201355D01*
X201605Y114470D01*
X254388Y115719D02*
X253388D01*
X253888D01*
Y114220D01*
X252889D02*
Y115719D01*
X252139D01*
X251889Y115470D01*
Y114970D01*
X252139Y114720D01*
X252889D01*
X250389Y114220D02*
X251389D01*
X250389Y115220D01*
Y115470D01*
X250639Y115719D01*
X251139D01*
X251389Y115470D01*
X196342Y39370D02*
Y40869D01*
X195592D01*
X195342Y40620D01*
Y40120D01*
X195592Y39870D01*
X196342D01*
X195842D02*
X195342Y39370D01*
X193843D02*
X194842D01*
X193843Y40370D01*
Y40620D01*
X194093Y40869D01*
X194593D01*
X194842Y40620D01*
X196088Y81788D02*
Y83287D01*
X195338D01*
X195088Y83038D01*
Y82538D01*
X195338Y82288D01*
X196088D01*
X195588D02*
X195088Y81788D01*
X194589D02*
X194089D01*
X194339D01*
Y83287D01*
X194589Y83038D01*
X255032D02*
X255282Y83287D01*
X255782D01*
X256032Y83038D01*
Y82038D01*
X255782Y81788D01*
X255282D01*
X255032Y82038D01*
X254533Y81788D02*
X254033D01*
X254283D01*
Y83287D01*
X254533Y83038D01*
X226060Y88113D02*
Y86864D01*
X225810Y86614D01*
X225310D01*
X225060Y86864D01*
Y88113D01*
X224561Y86614D02*
X224061D01*
X224311D01*
Y88113D01*
X224561Y87864D01*
D30*
X205500Y72500D02*
G03*
X205500Y72500I-500J0D01*
G01*
D31*
X230000Y37500D02*
D03*
X220001Y15000D02*
D03*
M02*
