G04*
G04 #@! TF.GenerationSoftware,Altium Limited,CircuitStudio,1.5.2 (30)*
G04*
G04 Layer_Color=15065295*
%FSLAX25Y25*%
%MOIN*%
G70*
G01*
G75*
%ADD19C,0.00079*%
G36*
X421950Y402584D02*
X420526D01*
Y403307D01*
X421950D01*
Y402584D01*
D02*
G37*
G36*
X436334D02*
X434909D01*
Y403307D01*
X436334D01*
Y402584D01*
D02*
G37*
G36*
X445433D02*
X444009D01*
Y403307D01*
X445433D01*
Y402584D01*
D02*
G37*
G36*
X431254Y403368D02*
Y403366D01*
Y403361D01*
Y403351D01*
Y403339D01*
Y403322D01*
Y403304D01*
Y403282D01*
Y403258D01*
X431251Y403203D01*
Y403139D01*
X431249Y403068D01*
X431247Y402994D01*
X431242Y402916D01*
X431239Y402834D01*
X431234Y402756D01*
X431227Y402677D01*
X431219Y402601D01*
X431212Y402529D01*
X431202Y402463D01*
X431190Y402406D01*
Y402404D01*
X431187Y402394D01*
X431182Y402379D01*
X431178Y402360D01*
X431170Y402335D01*
X431163Y402308D01*
X431151Y402276D01*
X431138Y402242D01*
X431106Y402168D01*
X431067Y402089D01*
X431020Y402008D01*
X430991Y401968D01*
X430961Y401932D01*
X430959Y401929D01*
X430954Y401924D01*
X430944Y401914D01*
X430932Y401900D01*
X430914Y401885D01*
X430895Y401865D01*
X430870Y401843D01*
X430843Y401821D01*
X430814Y401796D01*
X430782Y401772D01*
X430745Y401747D01*
X430705Y401720D01*
X430663Y401695D01*
X430617Y401671D01*
X430570Y401646D01*
X430518Y401624D01*
X430516D01*
X430506Y401619D01*
X430489Y401614D01*
X430469Y401607D01*
X430440Y401597D01*
X430408Y401587D01*
X430368Y401577D01*
X430324Y401568D01*
X430272Y401558D01*
X430218Y401548D01*
X430159Y401538D01*
X430093Y401528D01*
X430024Y401521D01*
X429950Y401516D01*
X429874Y401513D01*
X429790Y401511D01*
X429739D01*
X429702Y401513D01*
X429657Y401516D01*
X429603Y401518D01*
X429547Y401521D01*
X429485Y401526D01*
X429419Y401533D01*
X429352Y401540D01*
X429214Y401563D01*
X429148Y401577D01*
X429084Y401594D01*
X429025Y401612D01*
X428968Y401634D01*
X428966Y401636D01*
X428956Y401639D01*
X428941Y401646D01*
X428922Y401656D01*
X428900Y401668D01*
X428870Y401683D01*
X428841Y401703D01*
X428809Y401722D01*
X428737Y401769D01*
X428663Y401823D01*
X428592Y401887D01*
X428558Y401922D01*
X428526Y401959D01*
X428523Y401961D01*
X428518Y401968D01*
X428511Y401978D01*
X428499Y401993D01*
X428486Y402013D01*
X428472Y402035D01*
X428454Y402060D01*
X428437Y402086D01*
X428420Y402118D01*
X428403Y402150D01*
X428366Y402222D01*
X428336Y402298D01*
X428322Y402338D01*
X428312Y402379D01*
Y402384D01*
X428309Y402394D01*
X428304Y402414D01*
X428299Y402441D01*
X428295Y402475D01*
X428290Y402515D01*
X428282Y402564D01*
X428275Y402620D01*
X428267Y402684D01*
X428263Y402756D01*
X428255Y402834D01*
X428250Y402920D01*
X428245Y403014D01*
X428240Y403115D01*
X428238Y403223D01*
Y403339D01*
Y405356D01*
X429001D01*
Y403307D01*
Y403304D01*
Y403302D01*
Y403294D01*
Y403285D01*
Y403260D01*
Y403228D01*
Y403189D01*
X429003Y403144D01*
Y403098D01*
X429005Y403046D01*
X429008Y402938D01*
X429010Y402886D01*
X429013Y402834D01*
X429015Y402788D01*
X429020Y402743D01*
X429025Y402706D01*
X429030Y402674D01*
Y402672D01*
X429033Y402665D01*
X429035Y402652D01*
X429040Y402635D01*
X429047Y402615D01*
X429055Y402593D01*
X429065Y402569D01*
X429077Y402542D01*
X429109Y402483D01*
X429128Y402451D01*
X429151Y402421D01*
X429173Y402389D01*
X429200Y402360D01*
X429232Y402330D01*
X429264Y402303D01*
X429266Y402301D01*
X429274Y402298D01*
X429283Y402291D01*
X429298Y402281D01*
X429315Y402271D01*
X429340Y402259D01*
X429365Y402246D01*
X429397Y402234D01*
X429431Y402219D01*
X429468Y402207D01*
X429510Y402195D01*
X429554Y402185D01*
X429603Y402175D01*
X429655Y402168D01*
X429709Y402165D01*
X429768Y402163D01*
X429800D01*
X429822Y402165D01*
X429849Y402168D01*
X429879Y402170D01*
X429913Y402175D01*
X429950Y402180D01*
X430031Y402195D01*
X430112Y402219D01*
X430152Y402234D01*
X430189Y402251D01*
X430226Y402274D01*
X430258Y402296D01*
X430260Y402298D01*
X430265Y402303D01*
X430272Y402310D01*
X430285Y402320D01*
X430297Y402332D01*
X430312Y402347D01*
X430327Y402367D01*
X430344Y402387D01*
X430378Y402433D01*
X430410Y402490D01*
X430437Y402552D01*
X430447Y402586D01*
X430454Y402620D01*
Y402623D01*
X430457Y402630D01*
Y402642D01*
X430459Y402657D01*
X430462Y402679D01*
X430464Y402706D01*
X430469Y402736D01*
X430472Y402773D01*
X430474Y402815D01*
X430479Y402861D01*
X430481Y402916D01*
X430484Y402972D01*
X430486Y403036D01*
Y403107D01*
X430489Y403181D01*
Y403262D01*
Y405356D01*
X431254D01*
Y403368D01*
D02*
G37*
G36*
X423114Y401575D02*
X422349D01*
Y405356D01*
X423114D01*
Y401575D01*
D02*
G37*
G36*
X443692D02*
X442863D01*
X442530Y402433D01*
X441020D01*
X440708Y401575D01*
X439898D01*
X441369Y405356D01*
X442179D01*
X443692Y401575D01*
D02*
G37*
G36*
X433143Y405368D02*
X433180Y405366D01*
X433224Y405361D01*
X433278Y405353D01*
X433335Y405341D01*
X433399Y405329D01*
X433465Y405309D01*
X433537Y405287D01*
X433608Y405260D01*
X433679Y405228D01*
X433751Y405189D01*
X433820Y405144D01*
X433886Y405090D01*
X433950Y405031D01*
X433953Y405029D01*
X433962Y405019D01*
X433975Y405004D01*
X433992Y404982D01*
X434012Y404955D01*
X434034Y404925D01*
X434058Y404888D01*
X434083Y404849D01*
X434107Y404805D01*
X434132Y404756D01*
X434154Y404704D01*
X434174Y404647D01*
X434191Y404591D01*
X434203Y404529D01*
X434213Y404465D01*
X434216Y404401D01*
Y404399D01*
Y404396D01*
Y404389D01*
Y404379D01*
X434213Y404355D01*
X434208Y404320D01*
X434199Y404276D01*
X434186Y404229D01*
X434169Y404175D01*
X434147Y404116D01*
X434120Y404054D01*
X434083Y403988D01*
X434039Y403924D01*
X433985Y403858D01*
X433955Y403823D01*
X433923Y403791D01*
X433888Y403759D01*
X433849Y403727D01*
X433810Y403695D01*
X433766Y403666D01*
X433719Y403636D01*
X433670Y403607D01*
X433674D01*
X433684Y403604D01*
X433702Y403599D01*
X433724Y403592D01*
X433751Y403585D01*
X433783Y403572D01*
X433817Y403558D01*
X433856Y403543D01*
X433896Y403523D01*
X433940Y403501D01*
X433982Y403474D01*
X434026Y403447D01*
X434068Y403415D01*
X434110Y403378D01*
X434152Y403339D01*
X434189Y403294D01*
X434191Y403292D01*
X434196Y403285D01*
X434206Y403270D01*
X434221Y403250D01*
X434235Y403228D01*
X434250Y403198D01*
X434270Y403166D01*
X434287Y403130D01*
X434304Y403090D01*
X434324Y403044D01*
X434339Y402997D01*
X434356Y402945D01*
X434368Y402891D01*
X434378Y402832D01*
X434383Y402773D01*
X434385Y402709D01*
Y402706D01*
Y402704D01*
Y402697D01*
Y402687D01*
X434383Y402660D01*
X434380Y402625D01*
X434376Y402584D01*
X434366Y402534D01*
X434356Y402478D01*
X434341Y402416D01*
X434321Y402352D01*
X434297Y402283D01*
X434267Y402212D01*
X434233Y402141D01*
X434191Y402069D01*
X434142Y401998D01*
X434085Y401927D01*
X434021Y401860D01*
X434016Y401855D01*
X434004Y401846D01*
X433985Y401828D01*
X433955Y401806D01*
X433920Y401779D01*
X433879Y401750D01*
X433827Y401718D01*
X433773Y401686D01*
X433709Y401654D01*
X433640Y401622D01*
X433566Y401592D01*
X433485Y401565D01*
X433401Y401543D01*
X433310Y401526D01*
X433215Y401516D01*
X433116Y401511D01*
X433082D01*
X433067Y401513D01*
X433030Y401516D01*
X432986Y401521D01*
X432936Y401526D01*
X432877Y401536D01*
X432816Y401548D01*
X432750Y401563D01*
X432681Y401582D01*
X432612Y401607D01*
X432538Y401634D01*
X432467Y401668D01*
X432398Y401708D01*
X432329Y401752D01*
X432263Y401804D01*
X432258Y401806D01*
X432248Y401818D01*
X432231Y401833D01*
X432208Y401858D01*
X432184Y401887D01*
X432154Y401922D01*
X432120Y401964D01*
X432088Y402010D01*
X432053Y402064D01*
X432019Y402123D01*
X431987Y402187D01*
X431955Y402256D01*
X431928Y402330D01*
X431903Y402409D01*
X431884Y402490D01*
X431871Y402578D01*
X432575Y402662D01*
Y402660D01*
X432577Y402650D01*
X432580Y402638D01*
X432582Y402618D01*
X432587Y402596D01*
X432592Y402569D01*
X432599Y402542D01*
X432609Y402510D01*
X432634Y402443D01*
X432663Y402377D01*
X432683Y402342D01*
X432705Y402310D01*
X432727Y402278D01*
X432755Y402251D01*
X432757Y402249D01*
X432762Y402246D01*
X432769Y402239D01*
X432782Y402229D01*
X432796Y402219D01*
X432811Y402207D01*
X432833Y402195D01*
X432855Y402182D01*
X432907Y402155D01*
X432969Y402133D01*
X433001Y402123D01*
X433035Y402116D01*
X433072Y402114D01*
X433111Y402111D01*
X433133D01*
X433148Y402114D01*
X433168Y402116D01*
X433190Y402121D01*
X433215Y402126D01*
X433242Y402133D01*
X433271Y402141D01*
X433301Y402153D01*
X433333Y402165D01*
X433364Y402182D01*
X433396Y402202D01*
X433428Y402224D01*
X433458Y402251D01*
X433488Y402281D01*
X433490Y402283D01*
X433495Y402288D01*
X433502Y402298D01*
X433512Y402313D01*
X433524Y402330D01*
X433537Y402350D01*
X433552Y402374D01*
X433566Y402401D01*
X433579Y402433D01*
X433593Y402468D01*
X433606Y402505D01*
X433618Y402547D01*
X433628Y402591D01*
X433635Y402638D01*
X433640Y402687D01*
X433642Y402741D01*
Y402743D01*
Y402753D01*
Y402768D01*
X433640Y402785D01*
X433638Y402810D01*
X433635Y402837D01*
X433630Y402866D01*
X433625Y402898D01*
X433606Y402967D01*
X433596Y403002D01*
X433581Y403039D01*
X433564Y403076D01*
X433544Y403110D01*
X433522Y403142D01*
X433495Y403174D01*
X433493Y403176D01*
X433488Y403181D01*
X433480Y403189D01*
X433468Y403198D01*
X433453Y403211D01*
X433438Y403226D01*
X433416Y403238D01*
X433394Y403255D01*
X433369Y403270D01*
X433342Y403282D01*
X433281Y403309D01*
X433247Y403319D01*
X433212Y403326D01*
X433175Y403331D01*
X433136Y403334D01*
X433111D01*
X433099Y403331D01*
X433082D01*
X433064Y403329D01*
X433042Y403326D01*
X432993Y403322D01*
X432936Y403312D01*
X432875Y403297D01*
X432804Y403280D01*
X432882Y403870D01*
X432932D01*
X432956Y403872D01*
X432983Y403875D01*
X433015Y403877D01*
X433050Y403882D01*
X433121Y403897D01*
X433160Y403909D01*
X433197Y403922D01*
X433234Y403936D01*
X433269Y403954D01*
X433303Y403973D01*
X433333Y403998D01*
X433335Y404000D01*
X433340Y404005D01*
X433347Y404013D01*
X433357Y404023D01*
X433369Y404037D01*
X433382Y404052D01*
X433396Y404072D01*
X433411Y404094D01*
X433424Y404118D01*
X433438Y404146D01*
X433451Y404175D01*
X433463Y404207D01*
X433473Y404242D01*
X433480Y404278D01*
X433485Y404315D01*
X433488Y404357D01*
Y404360D01*
Y404364D01*
Y404377D01*
X433485Y404389D01*
Y404406D01*
X433483Y404424D01*
X433473Y404468D01*
X433461Y404517D01*
X433441Y404566D01*
X433411Y404615D01*
X433394Y404640D01*
X433374Y404662D01*
X433372Y404665D01*
X433369Y404667D01*
X433362Y404672D01*
X433355Y404679D01*
X433328Y404699D01*
X433293Y404719D01*
X433251Y404738D01*
X433200Y404758D01*
X433138Y404770D01*
X433106Y404775D01*
X433055D01*
X433040Y404773D01*
X433025Y404770D01*
X433005Y404768D01*
X432961Y404758D01*
X432912Y404743D01*
X432858Y404721D01*
X432831Y404706D01*
X432804Y404689D01*
X432777Y404667D01*
X432752Y404645D01*
X432750Y404642D01*
X432747Y404640D01*
X432740Y404633D01*
X432732Y404620D01*
X432720Y404608D01*
X432710Y404591D01*
X432698Y404574D01*
X432683Y404552D01*
X432671Y404524D01*
X432656Y404497D01*
X432644Y404468D01*
X432631Y404433D01*
X432619Y404396D01*
X432609Y404357D01*
X432602Y404315D01*
X432595Y404271D01*
X431925Y404384D01*
Y404389D01*
X431928Y404399D01*
X431933Y404416D01*
X431938Y404441D01*
X431945Y404470D01*
X431955Y404502D01*
X431967Y404542D01*
X431980Y404581D01*
X432009Y404667D01*
X432046Y404758D01*
X432088Y404849D01*
X432112Y404891D01*
X432137Y404930D01*
X432139Y404933D01*
X432144Y404940D01*
X432152Y404950D01*
X432164Y404965D01*
X432176Y404982D01*
X432194Y405002D01*
X432216Y405024D01*
X432238Y405048D01*
X432265Y405073D01*
X432294Y405100D01*
X432326Y405127D01*
X432361Y405154D01*
X432398Y405179D01*
X432440Y405206D01*
X432481Y405230D01*
X432528Y405253D01*
X432531Y405255D01*
X432540Y405258D01*
X432553Y405262D01*
X432572Y405272D01*
X432597Y405280D01*
X432624Y405290D01*
X432656Y405302D01*
X432693Y405312D01*
X432732Y405324D01*
X432777Y405334D01*
X432823Y405344D01*
X432872Y405353D01*
X432924Y405361D01*
X432978Y405366D01*
X433035Y405368D01*
X433091Y405371D01*
X433128D01*
X433143Y405368D01*
D02*
G37*
G36*
X427485Y401575D02*
X426774D01*
Y404552D01*
X426024Y401575D01*
X425288D01*
X424541Y404552D01*
Y401575D01*
X423832D01*
Y405356D01*
X424973D01*
X425660Y402775D01*
X426339Y405356D01*
X427485D01*
Y401575D01*
D02*
G37*
G36*
X428420Y398469D02*
X428454D01*
X428496Y398464D01*
X428545Y398459D01*
X428600Y398454D01*
X428659Y398444D01*
X428720Y398432D01*
X428784Y398420D01*
X428851Y398400D01*
X428917Y398380D01*
X428983Y398356D01*
X429047Y398326D01*
X429109Y398294D01*
X429165Y398255D01*
X429168Y398252D01*
X429178Y398245D01*
X429192Y398233D01*
X429214Y398213D01*
X429237Y398191D01*
X429266Y398164D01*
X429296Y398129D01*
X429330Y398093D01*
X429365Y398048D01*
X429399Y397999D01*
X429433Y397945D01*
X429470Y397886D01*
X429502Y397822D01*
X429534Y397753D01*
X429564Y397679D01*
X429591Y397598D01*
X428875Y397470D01*
Y397473D01*
X428873Y397480D01*
X428870Y397490D01*
X428868Y397504D01*
X428863Y397524D01*
X428858Y397544D01*
X428843Y397591D01*
X428821Y397642D01*
X428791Y397696D01*
X428757Y397748D01*
X428735Y397770D01*
X428713Y397792D01*
X428710Y397795D01*
X428708Y397797D01*
X428700Y397802D01*
X428690Y397810D01*
X428676Y397817D01*
X428661Y397827D01*
X428644Y397837D01*
X428624Y397847D01*
X428575Y397866D01*
X428518Y397883D01*
X428454Y397896D01*
X428417Y397901D01*
X428354D01*
X428336Y397898D01*
X428314Y397896D01*
X428287Y397891D01*
X428258Y397886D01*
X428226Y397878D01*
X428191Y397869D01*
X428157Y397854D01*
X428120Y397839D01*
X428083Y397822D01*
X428049Y397800D01*
X428014Y397775D01*
X427980Y397746D01*
X427948Y397714D01*
X427945Y397711D01*
X427940Y397704D01*
X427933Y397694D01*
X427923Y397677D01*
X427911Y397657D01*
X427896Y397632D01*
X427884Y397601D01*
X427869Y397566D01*
X427852Y397524D01*
X427839Y397477D01*
X427825Y397426D01*
X427812Y397369D01*
X427803Y397308D01*
X427795Y397239D01*
X427790Y397165D01*
X427788Y397086D01*
Y397084D01*
Y397081D01*
Y397074D01*
Y397064D01*
Y397040D01*
X427790Y397008D01*
X427793Y396968D01*
X427798Y396921D01*
X427803Y396872D01*
X427807Y396818D01*
X427827Y396705D01*
X427839Y396646D01*
X427857Y396589D01*
X427874Y396535D01*
X427896Y396486D01*
X427921Y396439D01*
X427950Y396397D01*
X427952Y396395D01*
X427957Y396390D01*
X427967Y396380D01*
X427980Y396365D01*
X427997Y396351D01*
X428017Y396334D01*
X428041Y396316D01*
X428068Y396299D01*
X428098Y396279D01*
X428130Y396262D01*
X428167Y396245D01*
X428206Y396230D01*
X428248Y396218D01*
X428292Y396208D01*
X428341Y396201D01*
X428390Y396198D01*
X428410D01*
X428425Y396201D01*
X428442D01*
X428462Y396206D01*
X428511Y396213D01*
X428563Y396228D01*
X428619Y396247D01*
X428676Y396277D01*
X428703Y396294D01*
X428727Y396314D01*
X428730Y396316D01*
X428732Y396319D01*
X428740Y396326D01*
X428750Y396336D01*
X428759Y396351D01*
X428772Y396365D01*
X428787Y396385D01*
X428801Y396410D01*
X428816Y396434D01*
X428831Y396464D01*
X428848Y396498D01*
X428863Y396533D01*
X428877Y396575D01*
X428890Y396619D01*
X428905Y396666D01*
X428914Y396717D01*
X429628Y396597D01*
Y396594D01*
X429625Y396592D01*
Y396585D01*
X429623Y396575D01*
X429615Y396550D01*
X429606Y396516D01*
X429591Y396476D01*
X429576Y396429D01*
X429557Y396378D01*
X429532Y396321D01*
X429505Y396262D01*
X429473Y396201D01*
X429438Y396139D01*
X429399Y396078D01*
X429357Y396019D01*
X429308Y395960D01*
X429256Y395905D01*
X429200Y395856D01*
X429197Y395854D01*
X429185Y395847D01*
X429168Y395834D01*
X429143Y395817D01*
X429111Y395800D01*
X429074Y395778D01*
X429028Y395756D01*
X428978Y395733D01*
X428919Y395709D01*
X428858Y395687D01*
X428789Y395664D01*
X428713Y395647D01*
X428631Y395630D01*
X428545Y395618D01*
X428454Y395610D01*
X428358Y395608D01*
X428331D01*
X428317Y395610D01*
X428299D01*
X428280Y395613D01*
X428258D01*
X428208Y395620D01*
X428149Y395627D01*
X428083Y395640D01*
X428012Y395655D01*
X427938Y395674D01*
X427859Y395701D01*
X427780Y395731D01*
X427699Y395768D01*
X427620Y395812D01*
X427542Y395861D01*
X427468Y395920D01*
X427399Y395987D01*
X427394Y395992D01*
X427384Y396004D01*
X427367Y396026D01*
X427343Y396056D01*
X427315Y396095D01*
X427286Y396142D01*
X427254Y396196D01*
X427222Y396260D01*
X427187Y396331D01*
X427155Y396410D01*
X427126Y396496D01*
X427099Y396589D01*
X427074Y396690D01*
X427057Y396798D01*
X427047Y396912D01*
X427042Y397035D01*
Y397037D01*
Y397042D01*
Y397052D01*
Y397064D01*
X427045Y397081D01*
Y397101D01*
X427047Y397121D01*
Y397148D01*
X427050Y397175D01*
X427052Y397204D01*
X427062Y397268D01*
X427072Y397342D01*
X427087Y397421D01*
X427106Y397504D01*
X427128Y397591D01*
X427158Y397679D01*
X427192Y397768D01*
X427234Y397854D01*
X427281Y397937D01*
X427338Y398019D01*
X427399Y398093D01*
X427404Y398097D01*
X427416Y398110D01*
X427436Y398127D01*
X427465Y398151D01*
X427500Y398181D01*
X427544Y398213D01*
X427596Y398247D01*
X427655Y398282D01*
X427721Y398316D01*
X427795Y398351D01*
X427874Y398383D01*
X427960Y398412D01*
X428053Y398437D01*
X428154Y398454D01*
X428260Y398466D01*
X428371Y398471D01*
X428393D01*
X428420Y398469D01*
D02*
G37*
G36*
X425586D02*
X425606D01*
X425630Y398466D01*
X425660Y398464D01*
X425689Y398462D01*
X425758Y398449D01*
X425830Y398434D01*
X425906Y398412D01*
X425982Y398383D01*
X425985D01*
X425992Y398378D01*
X426002Y398373D01*
X426014Y398368D01*
X426031Y398358D01*
X426051Y398348D01*
X426095Y398324D01*
X426142Y398292D01*
X426194Y398252D01*
X426240Y398211D01*
X426282Y398161D01*
X426285Y398159D01*
X426287Y398156D01*
X426292Y398149D01*
X426299Y398139D01*
X426307Y398124D01*
X426317Y398110D01*
X426339Y398073D01*
X426363Y398028D01*
X426385Y397977D01*
X426408Y397920D01*
X426425Y397859D01*
Y397856D01*
X426427Y397851D01*
X426430Y397842D01*
X426432Y397827D01*
X426435Y397810D01*
X426437Y397787D01*
X426442Y397763D01*
X426447Y397733D01*
X426449Y397701D01*
X426454Y397664D01*
X426457Y397625D01*
X426459Y397581D01*
X426462Y397534D01*
X426464Y397485D01*
X426467Y397431D01*
Y397372D01*
Y395669D01*
X425741D01*
Y397067D01*
Y397069D01*
Y397072D01*
Y397086D01*
Y397108D01*
Y397138D01*
X425739Y397172D01*
Y397214D01*
X425736Y397258D01*
Y397305D01*
X425729Y397401D01*
X425726Y397450D01*
X425721Y397495D01*
X425716Y397539D01*
X425709Y397578D01*
X425702Y397613D01*
X425694Y397640D01*
Y397642D01*
X425692Y397645D01*
X425689Y397652D01*
X425684Y397662D01*
X425675Y397684D01*
X425657Y397714D01*
X425638Y397746D01*
X425611Y397780D01*
X425579Y397812D01*
X425542Y397842D01*
X425537Y397844D01*
X425525Y397854D01*
X425502Y397866D01*
X425473Y397878D01*
X425436Y397893D01*
X425394Y397903D01*
X425345Y397913D01*
X425293Y397915D01*
X425276D01*
X425261Y397913D01*
X425244D01*
X425224Y397910D01*
X425180Y397903D01*
X425129Y397891D01*
X425069Y397871D01*
X425010Y397847D01*
X424954Y397812D01*
X424951D01*
X424946Y397807D01*
X424939Y397802D01*
X424929Y397792D01*
X424905Y397770D01*
X424873Y397738D01*
X424838Y397699D01*
X424804Y397652D01*
X424772Y397601D01*
X424747Y397539D01*
Y397536D01*
X424745Y397532D01*
X424742Y397519D01*
X424740Y397504D01*
X424735Y397485D01*
X424730Y397460D01*
X424725Y397431D01*
X424720Y397396D01*
X424715Y397357D01*
X424710Y397310D01*
X424705Y397258D01*
X424700Y397202D01*
X424698Y397138D01*
X424695Y397069D01*
X424693Y396993D01*
Y396909D01*
Y395669D01*
X423970D01*
Y398407D01*
X424641D01*
Y398009D01*
X424646Y398011D01*
X424659Y398026D01*
X424678Y398048D01*
X424705Y398080D01*
X424742Y398115D01*
X424784Y398154D01*
X424833Y398196D01*
X424890Y398240D01*
X424951Y398282D01*
X425020Y398324D01*
X425094Y398363D01*
X425173Y398400D01*
X425259Y398429D01*
X425350Y398452D01*
X425443Y398466D01*
X425495Y398469D01*
X425544Y398471D01*
X425569D01*
X425586Y398469D01*
D02*
G37*
G36*
X418907Y399512D02*
X418929D01*
X418954Y399509D01*
X418983Y399507D01*
X419015Y399504D01*
X419082Y399497D01*
X419158Y399487D01*
X419239Y399475D01*
X419323Y399458D01*
X419411Y399438D01*
X419500Y399413D01*
X419589Y399381D01*
X419677Y399347D01*
X419758Y399305D01*
X419837Y399256D01*
X419908Y399202D01*
X419913Y399199D01*
X419923Y399187D01*
X419943Y399170D01*
X419965Y399145D01*
X419992Y399113D01*
X420024Y399077D01*
X420056Y399032D01*
X420090Y398980D01*
X420125Y398924D01*
X420159Y398862D01*
X420191Y398794D01*
X420221Y398720D01*
X420245Y398641D01*
X420265Y398555D01*
X420280Y398466D01*
X420287Y398370D01*
X419525Y398336D01*
Y398339D01*
X419522Y398348D01*
X419520Y398363D01*
X419515Y398383D01*
X419507Y398407D01*
X419500Y398434D01*
X419490Y398466D01*
X419480Y398498D01*
X419451Y398567D01*
X419414Y398636D01*
X419392Y398668D01*
X419370Y398700D01*
X419343Y398730D01*
X419313Y398754D01*
X419311Y398757D01*
X419306Y398759D01*
X419296Y398766D01*
X419283Y398774D01*
X419266Y398784D01*
X419247Y398794D01*
X419222Y398806D01*
X419193Y398818D01*
X419161Y398831D01*
X419126Y398843D01*
X419087Y398853D01*
X419042Y398862D01*
X418996Y398870D01*
X418944Y398877D01*
X418890Y398880D01*
X418831Y398882D01*
X418799D01*
X418777Y398880D01*
X418747Y398877D01*
X418715Y398875D01*
X418678Y398870D01*
X418641Y398865D01*
X418558Y398850D01*
X418469Y398826D01*
X418427Y398811D01*
X418386Y398791D01*
X418346Y398771D01*
X418309Y398747D01*
X418307D01*
X418304Y398742D01*
X418290Y398730D01*
X418272Y398710D01*
X418250Y398685D01*
X418228Y398651D01*
X418209Y398609D01*
X418194Y398562D01*
X418191Y398538D01*
X418189Y398511D01*
Y398508D01*
Y398506D01*
Y398498D01*
X418191Y398488D01*
X418194Y398464D01*
X418204Y398432D01*
X418216Y398397D01*
X418235Y398358D01*
X418265Y398319D01*
X418282Y398302D01*
X418302Y398282D01*
X418304Y398279D01*
X418309Y398277D01*
X418319Y398270D01*
X418334Y398262D01*
X418351Y398250D01*
X418376Y398238D01*
X418408Y398223D01*
X418442Y398206D01*
X418486Y398186D01*
X418536Y398166D01*
X418592Y398147D01*
X418659Y398124D01*
X418730Y398102D01*
X418814Y398078D01*
X418902Y398053D01*
X419003Y398028D01*
X419005D01*
X419010Y398026D01*
X419018D01*
X419028Y398024D01*
X419040Y398019D01*
X419057Y398016D01*
X419094Y398006D01*
X419141Y397994D01*
X419195Y397979D01*
X419251Y397965D01*
X419315Y397945D01*
X419382Y397925D01*
X419451Y397905D01*
X419586Y397859D01*
X419653Y397834D01*
X419717Y397807D01*
X419773Y397782D01*
X419827Y397755D01*
X419830Y397753D01*
X419839Y397748D01*
X419852Y397741D01*
X419872Y397731D01*
X419894Y397716D01*
X419921Y397699D01*
X419948Y397679D01*
X419980Y397655D01*
X420014Y397630D01*
X420046Y397601D01*
X420083Y397568D01*
X420118Y397534D01*
X420152Y397497D01*
X420184Y397458D01*
X420216Y397416D01*
X420245Y397372D01*
X420248Y397369D01*
X420253Y397359D01*
X420260Y397347D01*
X420270Y397327D01*
X420280Y397305D01*
X420292Y397276D01*
X420307Y397244D01*
X420322Y397204D01*
X420334Y397163D01*
X420349Y397118D01*
X420361Y397069D01*
X420373Y397015D01*
X420381Y396958D01*
X420388Y396897D01*
X420393Y396835D01*
X420395Y396769D01*
Y396766D01*
Y396754D01*
Y396737D01*
X420393Y396715D01*
X420391Y396685D01*
X420386Y396651D01*
X420381Y396614D01*
X420373Y396572D01*
X420364Y396525D01*
X420351Y396476D01*
X420336Y396427D01*
X420319Y396375D01*
X420297Y396321D01*
X420272Y396267D01*
X420245Y396213D01*
X420213Y396159D01*
X420211Y396156D01*
X420206Y396147D01*
X420194Y396132D01*
X420181Y396112D01*
X420162Y396090D01*
X420140Y396063D01*
X420113Y396033D01*
X420083Y396002D01*
X420049Y395967D01*
X420009Y395933D01*
X419967Y395898D01*
X419923Y395861D01*
X419874Y395829D01*
X419820Y395795D01*
X419763Y395765D01*
X419704Y395738D01*
X419699Y395736D01*
X419689Y395733D01*
X419670Y395726D01*
X419645Y395716D01*
X419613Y395706D01*
X419574Y395696D01*
X419529Y395684D01*
X419478Y395672D01*
X419421Y395657D01*
X419360Y395645D01*
X419291Y395635D01*
X419219Y395625D01*
X419141Y395615D01*
X419060Y395608D01*
X418973Y395605D01*
X418883Y395603D01*
X418851D01*
X418833Y395605D01*
X418791D01*
X418764Y395608D01*
X418735Y395610D01*
X418705Y395613D01*
X418634Y395620D01*
X418558Y395630D01*
X418477Y395645D01*
X418388Y395662D01*
X418297Y395684D01*
X418206Y395711D01*
X418115Y395743D01*
X418024Y395780D01*
X417938Y395824D01*
X417857Y395873D01*
X417780Y395933D01*
X417775Y395937D01*
X417763Y395947D01*
X417743Y395967D01*
X417719Y395994D01*
X417689Y396028D01*
X417655Y396070D01*
X417618Y396122D01*
X417579Y396179D01*
X417539Y396242D01*
X417500Y396314D01*
X417461Y396395D01*
X417424Y396481D01*
X417392Y396575D01*
X417362Y396675D01*
X417338Y396784D01*
X417320Y396899D01*
X418063Y396971D01*
Y396966D01*
X418066Y396954D01*
X418071Y396936D01*
X418078Y396909D01*
X418085Y396880D01*
X418095Y396843D01*
X418108Y396803D01*
X418122Y396762D01*
X418140Y396717D01*
X418159Y396673D01*
X418181Y396626D01*
X418206Y396580D01*
X418233Y396535D01*
X418263Y396493D01*
X418297Y396454D01*
X418334Y396420D01*
X418336Y396417D01*
X418344Y396412D01*
X418356Y396402D01*
X418371Y396393D01*
X418393Y396380D01*
X418418Y396365D01*
X418447Y396348D01*
X418481Y396334D01*
X418518Y396316D01*
X418560Y396299D01*
X418607Y396284D01*
X418656Y396272D01*
X418708Y396262D01*
X418767Y396252D01*
X418826Y396247D01*
X418890Y396245D01*
X418924D01*
X418951Y396247D01*
X418981Y396250D01*
X419018Y396252D01*
X419055Y396257D01*
X419099Y396265D01*
X419188Y396282D01*
X419234Y396297D01*
X419281Y396311D01*
X419325Y396329D01*
X419370Y396348D01*
X419409Y396373D01*
X419446Y396400D01*
X419448Y396402D01*
X419453Y396407D01*
X419463Y396415D01*
X419475Y396427D01*
X419490Y396442D01*
X419505Y396462D01*
X419522Y396481D01*
X419539Y396506D01*
X419574Y396560D01*
X419603Y396621D01*
X419616Y396656D01*
X419626Y396690D01*
X419630Y396727D01*
X419633Y396766D01*
Y396769D01*
Y396771D01*
Y396779D01*
Y396789D01*
X419628Y396813D01*
X419623Y396845D01*
X419613Y396882D01*
X419601Y396919D01*
X419581Y396958D01*
X419554Y396995D01*
X419552Y397000D01*
X419539Y397010D01*
X419520Y397030D01*
X419490Y397052D01*
X419453Y397077D01*
X419429Y397091D01*
X419404Y397104D01*
X419377Y397118D01*
X419347Y397133D01*
X419313Y397145D01*
X419279Y397160D01*
X419276D01*
X419271Y397163D01*
X419264Y397165D01*
X419251Y397170D01*
X419234Y397175D01*
X419212Y397182D01*
X419185Y397190D01*
X419153Y397200D01*
X419114Y397209D01*
X419072Y397222D01*
X419023Y397234D01*
X418966Y397249D01*
X418902Y397266D01*
X418831Y397283D01*
X418755Y397303D01*
X418669Y397325D01*
X418666D01*
X418661Y397327D01*
X418654Y397330D01*
X418641Y397332D01*
X418627Y397335D01*
X418610Y397340D01*
X418590Y397347D01*
X418568Y397352D01*
X418518Y397367D01*
X418462Y397384D01*
X418398Y397406D01*
X418329Y397428D01*
X418260Y397455D01*
X418186Y397482D01*
X418115Y397514D01*
X418044Y397546D01*
X417977Y397583D01*
X417913Y397620D01*
X417857Y397657D01*
X417805Y397699D01*
X417800Y397704D01*
X417790Y397714D01*
X417773Y397731D01*
X417751Y397755D01*
X417724Y397785D01*
X417694Y397822D01*
X417665Y397864D01*
X417633Y397910D01*
X417598Y397965D01*
X417569Y398021D01*
X417539Y398085D01*
X417512Y398151D01*
X417490Y398223D01*
X417473Y398299D01*
X417463Y398378D01*
X417458Y398459D01*
Y398462D01*
Y398471D01*
Y398488D01*
X417461Y398508D01*
X417463Y398535D01*
X417468Y398565D01*
X417473Y398599D01*
X417478Y398636D01*
X417488Y398675D01*
X417497Y398720D01*
X417510Y398764D01*
X417527Y398811D01*
X417544Y398857D01*
X417566Y398904D01*
X417591Y398954D01*
X417621Y399000D01*
X417623Y399003D01*
X417628Y399012D01*
X417638Y399025D01*
X417650Y399042D01*
X417667Y399062D01*
X417689Y399086D01*
X417714Y399113D01*
X417741Y399143D01*
X417773Y399172D01*
X417807Y399204D01*
X417847Y399236D01*
X417889Y399266D01*
X417935Y399298D01*
X417985Y399327D01*
X418036Y399357D01*
X418093Y399381D01*
X418095Y399384D01*
X418108Y399386D01*
X418125Y399394D01*
X418147Y399401D01*
X418179Y399413D01*
X418213Y399423D01*
X418255Y399436D01*
X418302Y399448D01*
X418354Y399460D01*
X418410Y399472D01*
X418472Y399485D01*
X418538Y399495D01*
X418607Y399502D01*
X418681Y399509D01*
X418757Y399512D01*
X418838Y399514D01*
X418887D01*
X418907Y399512D01*
D02*
G37*
G36*
X422541Y395770D02*
X422368Y395295D01*
Y395293D01*
X422363Y395286D01*
X422359Y395273D01*
X422351Y395256D01*
X422344Y395236D01*
X422334Y395214D01*
X422322Y395187D01*
X422309Y395160D01*
X422282Y395101D01*
X422250Y395042D01*
X422218Y394983D01*
X422203Y394956D01*
X422186Y394931D01*
Y394929D01*
X422181Y394926D01*
X422177Y394919D01*
X422172Y394909D01*
X422154Y394887D01*
X422130Y394858D01*
X422100Y394826D01*
X422066Y394791D01*
X422029Y394757D01*
X421987Y394725D01*
X421982Y394722D01*
X421967Y394712D01*
X421943Y394698D01*
X421911Y394680D01*
X421871Y394661D01*
X421825Y394639D01*
X421771Y394619D01*
X421711Y394602D01*
X421709D01*
X421704Y394599D01*
X421694Y394597D01*
X421682Y394594D01*
X421667Y394592D01*
X421648Y394587D01*
X421628Y394584D01*
X421603Y394580D01*
X421549Y394572D01*
X421485Y394565D01*
X421416Y394560D01*
X421340Y394557D01*
X421306D01*
X421286Y394560D01*
X421264D01*
X421239Y394562D01*
X421212D01*
X421151Y394567D01*
X421082Y394577D01*
X421008Y394587D01*
X420932Y394602D01*
X420868Y395170D01*
X420870D01*
X420875Y395167D01*
X420885D01*
X420897Y395165D01*
X420912Y395163D01*
X420929Y395160D01*
X420969Y395153D01*
X421018Y395145D01*
X421067Y395141D01*
X421121Y395138D01*
X421173Y395135D01*
X421197D01*
X421215Y395138D01*
X421234Y395141D01*
X421259Y395143D01*
X421286Y395148D01*
X421315Y395155D01*
X421375Y395172D01*
X421407Y395185D01*
X421439Y395199D01*
X421468Y395217D01*
X421495Y395236D01*
X421522Y395258D01*
X421547Y395286D01*
X421549Y395288D01*
X421552Y395293D01*
X421559Y395300D01*
X421566Y395313D01*
X421576Y395327D01*
X421589Y395345D01*
X421603Y395364D01*
X421616Y395389D01*
X421630Y395413D01*
X421648Y395443D01*
X421662Y395473D01*
X421677Y395507D01*
X421707Y395581D01*
X421734Y395662D01*
X420691Y398407D01*
X421463D01*
X422117Y396464D01*
X422757Y398407D01*
X423510D01*
X422541Y395770D01*
D02*
G37*
G36*
X419165Y403016D02*
X420179Y401575D01*
X419288D01*
X418733Y402424D01*
X418169Y401575D01*
X417320D01*
X418309Y402984D01*
X417362Y404313D01*
X418248D01*
X418733Y403560D01*
X419242Y404313D01*
X420095D01*
X419165Y403016D01*
D02*
G37*
G36*
X438149Y405417D02*
X438171D01*
X438196Y405415D01*
X438226Y405412D01*
X438258Y405410D01*
X438324Y405403D01*
X438400Y405393D01*
X438481Y405380D01*
X438565Y405363D01*
X438654Y405344D01*
X438742Y405319D01*
X438831Y405287D01*
X438919Y405253D01*
X439000Y405211D01*
X439079Y405162D01*
X439150Y405107D01*
X439155Y405105D01*
X439165Y405093D01*
X439185Y405075D01*
X439207Y405051D01*
X439234Y405019D01*
X439266Y404982D01*
X439298Y404938D01*
X439332Y404886D01*
X439367Y404829D01*
X439401Y404768D01*
X439433Y404699D01*
X439463Y404625D01*
X439488Y404546D01*
X439507Y404460D01*
X439522Y404372D01*
X439529Y404276D01*
X438767Y404242D01*
Y404244D01*
X438764Y404254D01*
X438762Y404269D01*
X438757Y404288D01*
X438750Y404313D01*
X438742Y404340D01*
X438732Y404372D01*
X438722Y404404D01*
X438693Y404473D01*
X438656Y404542D01*
X438634Y404574D01*
X438612Y404606D01*
X438585Y404635D01*
X438555Y404660D01*
X438553Y404662D01*
X438548Y404665D01*
X438538Y404672D01*
X438526Y404679D01*
X438508Y404689D01*
X438489Y404699D01*
X438464Y404711D01*
X438435Y404724D01*
X438403Y404736D01*
X438368Y404748D01*
X438329Y404758D01*
X438285Y404768D01*
X438238Y404775D01*
X438186Y404783D01*
X438132Y404785D01*
X438073Y404788D01*
X438041D01*
X438019Y404785D01*
X437989Y404783D01*
X437957Y404780D01*
X437921Y404775D01*
X437884Y404770D01*
X437800Y404756D01*
X437711Y404731D01*
X437670Y404716D01*
X437628Y404697D01*
X437588Y404677D01*
X437551Y404652D01*
X437549D01*
X437547Y404647D01*
X437532Y404635D01*
X437515Y404615D01*
X437492Y404591D01*
X437470Y404556D01*
X437451Y404515D01*
X437436Y404468D01*
X437433Y404443D01*
X437431Y404416D01*
Y404414D01*
Y404411D01*
Y404404D01*
X437433Y404394D01*
X437436Y404369D01*
X437446Y404337D01*
X437458Y404303D01*
X437478Y404264D01*
X437507Y404224D01*
X437524Y404207D01*
X437544Y404187D01*
X437547Y404185D01*
X437551Y404182D01*
X437561Y404175D01*
X437576Y404168D01*
X437593Y404155D01*
X437618Y404143D01*
X437650Y404128D01*
X437684Y404111D01*
X437729Y404091D01*
X437778Y404072D01*
X437834Y404052D01*
X437901Y404030D01*
X437972Y404008D01*
X438056Y403983D01*
X438144Y403959D01*
X438245Y403934D01*
X438248D01*
X438253Y403932D01*
X438260D01*
X438270Y403929D01*
X438282Y403924D01*
X438299Y403922D01*
X438336Y403912D01*
X438383Y403900D01*
X438437Y403885D01*
X438494Y403870D01*
X438558Y403850D01*
X438624Y403831D01*
X438693Y403811D01*
X438828Y403764D01*
X438895Y403740D01*
X438959Y403713D01*
X439015Y403688D01*
X439069Y403661D01*
X439072Y403658D01*
X439082Y403654D01*
X439094Y403646D01*
X439114Y403636D01*
X439136Y403622D01*
X439163Y403604D01*
X439190Y403585D01*
X439222Y403560D01*
X439256Y403536D01*
X439288Y403506D01*
X439325Y403474D01*
X439360Y403440D01*
X439394Y403403D01*
X439426Y403363D01*
X439458Y403322D01*
X439488Y403277D01*
X439490Y403275D01*
X439495Y403265D01*
X439502Y403253D01*
X439512Y403233D01*
X439522Y403211D01*
X439534Y403181D01*
X439549Y403149D01*
X439564Y403110D01*
X439576Y403068D01*
X439591Y403024D01*
X439603Y402975D01*
X439615Y402920D01*
X439623Y402864D01*
X439630Y402802D01*
X439635Y402741D01*
X439638Y402674D01*
Y402672D01*
Y402660D01*
Y402642D01*
X439635Y402620D01*
X439633Y402591D01*
X439628Y402556D01*
X439623Y402520D01*
X439615Y402478D01*
X439606Y402431D01*
X439593Y402382D01*
X439578Y402332D01*
X439561Y402281D01*
X439539Y402227D01*
X439514Y402173D01*
X439488Y402118D01*
X439456Y402064D01*
X439453Y402062D01*
X439448Y402052D01*
X439436Y402037D01*
X439424Y402018D01*
X439404Y401996D01*
X439382Y401968D01*
X439355Y401939D01*
X439325Y401907D01*
X439291Y401872D01*
X439251Y401838D01*
X439210Y401804D01*
X439165Y401767D01*
X439116Y401735D01*
X439062Y401700D01*
X439005Y401671D01*
X438946Y401644D01*
X438941Y401641D01*
X438932Y401639D01*
X438912Y401631D01*
X438887Y401622D01*
X438855Y401612D01*
X438816Y401602D01*
X438772Y401590D01*
X438720Y401577D01*
X438663Y401563D01*
X438602Y401550D01*
X438533Y401540D01*
X438462Y401531D01*
X438383Y401521D01*
X438302Y401513D01*
X438216Y401511D01*
X438125Y401508D01*
X438093D01*
X438075Y401511D01*
X438034D01*
X438007Y401513D01*
X437977Y401516D01*
X437948Y401518D01*
X437876Y401526D01*
X437800Y401536D01*
X437719Y401550D01*
X437630Y401568D01*
X437539Y401590D01*
X437448Y401617D01*
X437357Y401649D01*
X437266Y401686D01*
X437180Y401730D01*
X437099Y401779D01*
X437023Y401838D01*
X437018Y401843D01*
X437005Y401853D01*
X436986Y401872D01*
X436961Y401900D01*
X436932Y401934D01*
X436897Y401976D01*
X436860Y402028D01*
X436821Y402084D01*
X436782Y402148D01*
X436742Y402219D01*
X436703Y402301D01*
X436666Y402387D01*
X436634Y402480D01*
X436604Y402581D01*
X436580Y402689D01*
X436563Y402805D01*
X437305Y402876D01*
Y402871D01*
X437308Y402859D01*
X437313Y402842D01*
X437320Y402815D01*
X437328Y402785D01*
X437337Y402748D01*
X437350Y402709D01*
X437364Y402667D01*
X437382Y402623D01*
X437401Y402578D01*
X437424Y402532D01*
X437448Y402485D01*
X437475Y402441D01*
X437505Y402399D01*
X437539Y402360D01*
X437576Y402325D01*
X437578Y402323D01*
X437586Y402318D01*
X437598Y402308D01*
X437613Y402298D01*
X437635Y402286D01*
X437660Y402271D01*
X437689Y402254D01*
X437724Y402239D01*
X437761Y402222D01*
X437802Y402205D01*
X437849Y402190D01*
X437898Y402178D01*
X437950Y402168D01*
X438009Y402158D01*
X438068Y402153D01*
X438132Y402150D01*
X438167D01*
X438194Y402153D01*
X438223Y402155D01*
X438260Y402158D01*
X438297Y402163D01*
X438341Y402170D01*
X438430Y402187D01*
X438476Y402202D01*
X438523Y402217D01*
X438567Y402234D01*
X438612Y402254D01*
X438651Y402278D01*
X438688Y402306D01*
X438690Y402308D01*
X438695Y402313D01*
X438705Y402320D01*
X438718Y402332D01*
X438732Y402347D01*
X438747Y402367D01*
X438764Y402387D01*
X438781Y402411D01*
X438816Y402465D01*
X438845Y402527D01*
X438858Y402561D01*
X438868Y402596D01*
X438872Y402633D01*
X438875Y402672D01*
Y402674D01*
Y402677D01*
Y402684D01*
Y402694D01*
X438870Y402719D01*
X438865Y402751D01*
X438855Y402788D01*
X438843Y402824D01*
X438823Y402864D01*
X438796Y402901D01*
X438794Y402906D01*
X438781Y402916D01*
X438762Y402935D01*
X438732Y402957D01*
X438695Y402982D01*
X438671Y402997D01*
X438646Y403009D01*
X438619Y403024D01*
X438590Y403039D01*
X438555Y403051D01*
X438521Y403066D01*
X438518D01*
X438513Y403068D01*
X438506Y403070D01*
X438494Y403076D01*
X438476Y403080D01*
X438454Y403088D01*
X438427Y403095D01*
X438395Y403105D01*
X438356Y403115D01*
X438314Y403127D01*
X438265Y403139D01*
X438208Y403154D01*
X438144Y403171D01*
X438073Y403189D01*
X437997Y403208D01*
X437911Y403230D01*
X437908D01*
X437903Y403233D01*
X437896Y403235D01*
X437884Y403238D01*
X437869Y403240D01*
X437852Y403245D01*
X437832Y403253D01*
X437810Y403258D01*
X437761Y403272D01*
X437704Y403290D01*
X437640Y403312D01*
X437571Y403334D01*
X437502Y403361D01*
X437429Y403388D01*
X437357Y403420D01*
X437286Y403452D01*
X437219Y403489D01*
X437155Y403526D01*
X437099Y403562D01*
X437047Y403604D01*
X437042Y403609D01*
X437032Y403619D01*
X437015Y403636D01*
X436993Y403661D01*
X436966Y403690D01*
X436937Y403727D01*
X436907Y403769D01*
X436875Y403816D01*
X436840Y403870D01*
X436811Y403927D01*
X436782Y403991D01*
X436754Y404057D01*
X436732Y404128D01*
X436715Y404205D01*
X436705Y404283D01*
X436700Y404364D01*
Y404367D01*
Y404377D01*
Y404394D01*
X436703Y404414D01*
X436705Y404441D01*
X436710Y404470D01*
X436715Y404505D01*
X436720Y404542D01*
X436730Y404581D01*
X436740Y404625D01*
X436752Y404670D01*
X436769Y404716D01*
X436786Y404763D01*
X436809Y404810D01*
X436833Y404859D01*
X436863Y404906D01*
X436865Y404908D01*
X436870Y404918D01*
X436880Y404930D01*
X436892Y404948D01*
X436909Y404967D01*
X436932Y404992D01*
X436956Y405019D01*
X436983Y405048D01*
X437015Y405078D01*
X437050Y405110D01*
X437089Y405142D01*
X437131Y405171D01*
X437178Y405203D01*
X437227Y405233D01*
X437278Y405262D01*
X437335Y405287D01*
X437337Y405290D01*
X437350Y405292D01*
X437367Y405299D01*
X437389Y405307D01*
X437421Y405319D01*
X437456Y405329D01*
X437497Y405341D01*
X437544Y405353D01*
X437596Y405366D01*
X437652Y405378D01*
X437714Y405390D01*
X437780Y405400D01*
X437849Y405407D01*
X437923Y405415D01*
X437999Y405417D01*
X438080Y405420D01*
X438130D01*
X438149Y405417D01*
D02*
G37*
%LPC*%
G36*
X441765Y404473D02*
X441254Y403070D01*
X442287D01*
X441765Y404473D01*
D02*
G37*
%LPD*%
D19*
X398031Y413976D02*
X397835D01*
X397933D01*
Y413484D01*
X397835Y413386D01*
X397736D01*
X397638Y413484D01*
X398622Y413386D02*
X398228D01*
X398622Y413779D01*
Y413878D01*
X398523Y413976D01*
X398327D01*
X398228Y413878D01*
X441338Y417590D02*
X441142D01*
X441240D01*
Y417098D01*
X441142Y417000D01*
X441043D01*
X440945Y417098D01*
X441535Y417000D02*
X441732D01*
X441634D01*
Y417590D01*
X441535Y417492D01*
M02*
