G04*
G04 #@! TF.GenerationSoftware,Altium Limited,CircuitStudio,1.5.2 (30)*
G04*
G04 Layer_Physical_Order=1*
G04 Layer_Color=11767835*
%FSLAX25Y25*%
%MOIN*%
G70*
G01*
G75*
%ADD10R,0.17716X0.05906*%
%ADD11R,0.17716X0.03937*%
%ADD12C,0.00591*%
%ADD13O,0.03937X0.07087*%
%ADD14C,0.01969*%
G36*
X435549Y440084D02*
X437985Y439600D01*
X440337Y438801D01*
X442564Y437703D01*
X444629Y436323D01*
X446497Y434686D01*
X448134Y432818D01*
X449514Y430753D01*
X450612Y428526D01*
X451411Y426174D01*
X451895Y423738D01*
X452057Y421276D01*
X452053Y421260D01*
Y413386D01*
X452057Y413370D01*
X451895Y410908D01*
X451411Y408472D01*
X450612Y406120D01*
X449514Y403893D01*
X448134Y401827D01*
X446497Y399960D01*
X444629Y398323D01*
X442564Y396943D01*
X440337Y395844D01*
X437985Y395046D01*
X435549Y394562D01*
X433087Y394400D01*
X433071Y394403D01*
X414961D01*
Y397433D01*
X405512D01*
X396063D01*
Y394403D01*
X394403D01*
Y440242D01*
X396063D01*
Y437213D01*
X405512D01*
X414961D01*
Y440242D01*
X433071D01*
X433087Y440246D01*
X435549Y440084D01*
D02*
G37*
%LPC*%
G36*
X449432Y416823D02*
X447351D01*
Y413233D01*
X447518Y413255D01*
X448141Y413513D01*
X448676Y413923D01*
X449086Y414458D01*
X449344Y415080D01*
X449432Y415748D01*
Y416823D01*
D02*
G37*
G36*
X427165Y421306D02*
X426244Y421123D01*
X425462Y420601D01*
X424940Y419819D01*
X424757Y418898D01*
Y415748D01*
X424940Y414826D01*
X425462Y414045D01*
X426244Y413523D01*
X427165Y413340D01*
X428087Y413523D01*
X428868Y414045D01*
X429391Y414826D01*
X429574Y415748D01*
Y418898D01*
X429391Y419819D01*
X428868Y420601D01*
X428087Y421123D01*
X427165Y421306D01*
D02*
G37*
G36*
X446350Y416823D02*
X444269D01*
Y415748D01*
X444357Y415080D01*
X444615Y414458D01*
X445025Y413923D01*
X445560Y413513D01*
X446182Y413255D01*
X446350Y413233D01*
Y416823D01*
D02*
G37*
G36*
X405012Y401476D02*
X396063D01*
Y398433D01*
X405012D01*
Y401476D01*
D02*
G37*
G36*
X414961D02*
X406012D01*
Y398433D01*
X414961D01*
Y401476D01*
D02*
G37*
G36*
X437008Y421306D02*
X436086Y421123D01*
X435305Y420601D01*
X434783Y419819D01*
X434599Y418898D01*
Y415748D01*
X434783Y414826D01*
X435305Y414045D01*
X436086Y413523D01*
X437008Y413340D01*
X437930Y413523D01*
X438711Y414045D01*
X439233Y414826D01*
X439416Y415748D01*
Y418898D01*
X439233Y419819D01*
X438711Y420601D01*
X437930Y421123D01*
X437008Y421306D01*
D02*
G37*
G36*
X405012Y436213D02*
X396063D01*
Y433169D01*
X405012D01*
Y436213D01*
D02*
G37*
G36*
X414961D02*
X406012D01*
Y433169D01*
X414961D01*
Y436213D01*
D02*
G37*
G36*
X447351Y421413D02*
Y417823D01*
X449432D01*
Y418898D01*
X449344Y419566D01*
X449086Y420188D01*
X448676Y420723D01*
X448141Y421133D01*
X447518Y421391D01*
X447351Y421413D01*
D02*
G37*
G36*
X414764Y419685D02*
X396260D01*
Y414961D01*
X414764D01*
Y416620D01*
X416135D01*
X416329Y416329D01*
X416785Y416025D01*
X417323Y415918D01*
X417861Y416025D01*
X418316Y416329D01*
X418621Y416785D01*
X418728Y417323D01*
X418621Y417861D01*
X418316Y418316D01*
X417861Y418621D01*
X417323Y418728D01*
X416785Y418621D01*
X416329Y418316D01*
X416135Y418025D01*
X414764D01*
Y419685D01*
D02*
G37*
G36*
X446350Y421413D02*
X446182Y421391D01*
X445560Y421133D01*
X445025Y420723D01*
X444615Y420188D01*
X444357Y419566D01*
X444269Y418898D01*
Y417823D01*
X446350D01*
Y421413D01*
D02*
G37*
%LPD*%
D10*
X405512Y397933D02*
D03*
Y436713D02*
D03*
D11*
Y417323D02*
D03*
D12*
X417323D01*
D13*
X446850D02*
D03*
X437008D02*
D03*
X427165D02*
D03*
D14*
X417323D02*
D03*
M02*
