G04*
G04 #@! TF.GenerationSoftware,Altium Limited,CircuitStudio,1.5.2 (30)*
G04*
G04 Layer_Color=13948096*
%FSLAX25Y25*%
%MOIN*%
G70*
G01*
G75*
%ADD19C,0.00079*%
%ADD27C,0.00787*%
%ADD28R,0.00787X0.04724*%
D19*
X415700Y422900D02*
Y423490D01*
X415405D01*
X415307Y423392D01*
Y423195D01*
X415405Y423097D01*
X415700D01*
X415503D02*
X415307Y422900D01*
X415110D02*
X414913D01*
X415011D01*
Y423490D01*
X415110Y423392D01*
X429600Y435290D02*
Y434700D01*
X429305D01*
X429207Y434798D01*
Y435192D01*
X429305Y435290D01*
X429600D01*
X428616Y434700D02*
X429010D01*
X428616Y435094D01*
Y435192D01*
X428715Y435290D01*
X428911D01*
X429010Y435192D01*
X429500Y425490D02*
Y424900D01*
X429205D01*
X429107Y424998D01*
Y425392D01*
X429205Y425490D01*
X429500D01*
X428910Y424900D02*
X428713D01*
X428811D01*
Y425490D01*
X428910Y425392D01*
X437007Y405692D02*
X437105Y405790D01*
X437302D01*
X437400Y405692D01*
Y405298D01*
X437302Y405200D01*
X437105D01*
X437007Y405298D01*
X436810Y405200D02*
X436613D01*
X436711D01*
Y405790D01*
X436810Y405692D01*
X425600Y405790D02*
Y405298D01*
X425502Y405200D01*
X425305D01*
X425207Y405298D01*
Y405790D01*
X425010Y405200D02*
X424813D01*
X424911D01*
Y405790D01*
X425010Y405692D01*
D27*
X424409Y401772D02*
G03*
X424409Y401772I-394J0D01*
G01*
D28*
X427165Y435039D02*
D03*
X431102Y425197D02*
D03*
M02*
