G04*
G04 #@! TF.GenerationSoftware,Altium Limited,Altium Designer,23.5.1 (21)*
G04*
G04 Layer_Physical_Order=1*
G04 Layer_Color=255*
%FSLAX44Y44*%
%MOMM*%
G71*
G04*
G04 #@! TF.SameCoordinates,15E139BA-CB31-48D9-99C5-4DE2AD628402*
G04*
G04*
G04 #@! TF.FilePolarity,Positive*
G04*
G01*
G75*
%ADD11R,4.5000X1.0000*%
%ADD12R,4.5000X1.5000*%
%ADD16C,0.1500*%
%ADD17O,1.0000X1.8000*%
%ADD18C,0.4000*%
G36*
X249435Y117296D02*
X253699Y116002D01*
X257630Y113901D01*
X261074Y111074D01*
X263901Y107629D01*
X266002Y103699D01*
X267296Y99435D01*
X267724Y95089D01*
X267706Y95000D01*
Y25000D01*
X267724Y24911D01*
X267296Y20565D01*
X266002Y16301D01*
X263901Y12371D01*
X261074Y8926D01*
X257630Y6099D01*
X253699Y3998D01*
X249435Y2704D01*
X245089Y2276D01*
X245000Y2294D01*
X184000Y2294D01*
Y9480D01*
X160000D01*
X136000D01*
Y2294D01*
X132294D01*
Y117706D01*
X136000D01*
Y110520D01*
X160000D01*
X184000D01*
Y117706D01*
X245000D01*
X245089Y117724D01*
X249435Y117296D01*
D02*
G37*
%LPC*%
G36*
X184000Y107980D02*
X161270D01*
Y100250D01*
X184000D01*
Y107980D01*
D02*
G37*
G36*
X158730D02*
X136000D01*
Y100250D01*
X158730D01*
Y107980D01*
D02*
G37*
G36*
X238196Y113500D02*
X236804D01*
X235517Y112967D01*
X234533Y111983D01*
X234000Y110696D01*
Y109304D01*
X234533Y108017D01*
X235206Y107344D01*
Y72500D01*
X235381Y71622D01*
X235878Y70878D01*
X236500Y70256D01*
Y69304D01*
X237033Y68017D01*
X238017Y67033D01*
X239304Y66500D01*
X240696D01*
X241983Y67033D01*
X242967Y68017D01*
X243500Y69304D01*
Y70696D01*
X242967Y71983D01*
X241983Y72967D01*
X240696Y73500D01*
X239794D01*
Y107344D01*
X240467Y108017D01*
X241000Y109304D01*
Y110696D01*
X240467Y111983D01*
X239483Y112967D01*
X238196Y113500D01*
D02*
G37*
G36*
X256270Y70389D02*
Y61270D01*
X261556D01*
Y64000D01*
X261333Y65697D01*
X260678Y67278D01*
X259636Y68636D01*
X258278Y69678D01*
X256697Y70333D01*
X256270Y70389D01*
D02*
G37*
G36*
X253730D02*
X253303Y70333D01*
X251722Y69678D01*
X250364Y68636D01*
X249322Y67278D01*
X248667Y65697D01*
X248444Y64000D01*
Y61270D01*
X253730D01*
Y70389D01*
D02*
G37*
G36*
X184000Y66500D02*
X136000D01*
Y53500D01*
X184000D01*
Y57706D01*
X187344D01*
X188017Y57033D01*
X189304Y56500D01*
X190696D01*
X191983Y57033D01*
X192967Y58017D01*
X193500Y59304D01*
Y60696D01*
X192967Y61983D01*
X191983Y62967D01*
X190696Y63500D01*
X189304D01*
X188017Y62967D01*
X187344Y62294D01*
X184000D01*
Y66500D01*
D02*
G37*
G36*
X261556Y58730D02*
X256270D01*
Y49611D01*
X256697Y49667D01*
X258278Y50322D01*
X259636Y51364D01*
X260678Y52722D01*
X261333Y54303D01*
X261556Y56000D01*
Y58730D01*
D02*
G37*
G36*
X253730D02*
X248444D01*
Y56000D01*
X248667Y54303D01*
X249322Y52722D01*
X250364Y51364D01*
X251722Y50322D01*
X253303Y49667D01*
X253730Y49611D01*
Y58730D01*
D02*
G37*
G36*
X230000Y70556D02*
X228303Y70333D01*
X226722Y69678D01*
X225364Y68636D01*
X224322Y67278D01*
X223667Y65697D01*
X223444Y64000D01*
Y56000D01*
X223667Y54303D01*
X224322Y52722D01*
X225364Y51364D01*
X226722Y50322D01*
X228303Y49667D01*
X230000Y49444D01*
X231697Y49667D01*
X233278Y50322D01*
X234636Y51364D01*
X235678Y52722D01*
X236333Y54303D01*
X236556Y56000D01*
Y64000D01*
X236333Y65697D01*
X235678Y67278D01*
X234636Y68636D01*
X233278Y69678D01*
X231697Y70333D01*
X230000Y70556D01*
D02*
G37*
G36*
X205000D02*
X203303Y70333D01*
X201722Y69678D01*
X200364Y68636D01*
X199322Y67278D01*
X198667Y65697D01*
X198444Y64000D01*
Y56000D01*
X198667Y54303D01*
X199322Y52722D01*
X200364Y51364D01*
X201722Y50322D01*
X203303Y49667D01*
X205000Y49444D01*
X206697Y49667D01*
X208278Y50322D01*
X209636Y51364D01*
X210678Y52722D01*
X211333Y54303D01*
X211556Y56000D01*
Y64000D01*
X211333Y65697D01*
X210678Y67278D01*
X209636Y68636D01*
X208278Y69678D01*
X206697Y70333D01*
X205000Y70556D01*
D02*
G37*
G36*
X184000Y19750D02*
X161270D01*
Y12020D01*
X184000D01*
Y19750D01*
D02*
G37*
G36*
X158730D02*
X136000D01*
Y12020D01*
X158730D01*
Y19750D01*
D02*
G37*
%LPD*%
D11*
X160000Y60000D02*
D03*
D12*
Y109250D02*
D03*
Y10750D02*
D03*
D16*
X237500Y72500D02*
X240000Y70000D01*
X237500Y72500D02*
Y110000D01*
X160000Y60000D02*
X190000D01*
D17*
X255000D02*
D03*
X230000D02*
D03*
X205000D02*
D03*
D18*
X240000Y70000D02*
D03*
X237500Y110000D02*
D03*
X190000Y60000D02*
D03*
M02*
