G04*
G04 #@! TF.GenerationSoftware,Altium Limited,Altium Designer,24.4.1 (13)*
G04*
G04 Layer_Physical_Order=2*
G04 Layer_Color=16711680*
%FSLAX44Y44*%
%MOMM*%
G71*
G04*
G04 #@! TF.SameCoordinates,44DCB5E1-04CF-47D5-A710-08A0CD88592B*
G04*
G04*
G04 #@! TF.FilePolarity,Positive*
G04*
G01*
G75*
%ADD16C,0.1500*%
%ADD17O,1.0000X1.8000*%
%ADD18C,0.4000*%
%ADD19R,4.5000X2.0000*%
%ADD20C,1.0000*%
%ADD21R,1.2000X1.2000*%
%ADD22R,0.7000X0.4000*%
%ADD23R,0.9000X0.6000*%
%ADD24C,0.4000*%
G36*
X249533Y117788D02*
X253892Y116466D01*
X257909Y114319D01*
X261430Y111430D01*
X264319Y107909D01*
X266466Y103892D01*
X267788Y99533D01*
X268228Y95064D01*
X268216Y95000D01*
Y25000D01*
X268228Y24936D01*
X267788Y20467D01*
X266466Y16108D01*
X264319Y12091D01*
X261430Y8571D01*
X257909Y5681D01*
X253892Y3534D01*
X249533Y2212D01*
X245065Y1771D01*
X245000Y1784D01*
X131784Y1784D01*
Y118216D01*
X245000D01*
X245065Y118229D01*
X249533Y117788D01*
D02*
G37*
%LPC*%
G36*
X246194Y116000D02*
X243806D01*
X241601Y115087D01*
X239914Y113399D01*
X238333Y112902D01*
X238097Y113000D01*
X236903D01*
X235801Y112543D01*
X234957Y111699D01*
X234500Y110597D01*
Y109403D01*
X234957Y108301D01*
X235801Y107457D01*
X236903Y107000D01*
X238097D01*
X238333Y107098D01*
X239914Y106601D01*
X241601Y104914D01*
X243806Y104000D01*
X246194D01*
X248399Y104914D01*
X250086Y106601D01*
X251000Y108806D01*
Y111194D01*
X250086Y113399D01*
X248399Y115087D01*
X246194Y116000D01*
D02*
G37*
G36*
X183500Y115750D02*
X161270D01*
Y106020D01*
X183500D01*
Y115750D01*
D02*
G37*
G36*
X158730D02*
X136500D01*
Y106020D01*
X158730D01*
Y115750D01*
D02*
G37*
G36*
X221194Y116000D02*
X218806D01*
X216601Y115087D01*
X214913Y113399D01*
X214000Y111194D01*
Y108806D01*
X214913Y106601D01*
X216601Y104914D01*
X217716Y104452D01*
Y102181D01*
X217500Y101000D01*
X216446Y101000D01*
X213784D01*
Y103000D01*
X213648Y103683D01*
X213262Y104262D01*
X206262Y111262D01*
X205683Y111649D01*
X205000Y111784D01*
X200755D01*
X200086Y113399D01*
X198399Y115087D01*
X196194Y116000D01*
X193806D01*
X191601Y115087D01*
X189913Y113399D01*
X189000Y111194D01*
Y108806D01*
X189913Y106601D01*
X191601Y104914D01*
X193806Y104000D01*
X196194D01*
X198399Y104914D01*
X200086Y106601D01*
X200755Y108216D01*
X204261D01*
X210207Y102270D01*
X210194Y101000D01*
X206500D01*
Y98784D01*
X202000D01*
X201317Y98649D01*
X200738Y98262D01*
X193738Y91262D01*
X193351Y90683D01*
X193216Y90000D01*
X190500D01*
Y84000D01*
X199500D01*
Y90000D01*
X199183D01*
X198697Y91173D01*
X202739Y95216D01*
X206500D01*
Y93000D01*
X216233Y93000D01*
X216676Y92250D01*
X216233Y91500D01*
X213270D01*
Y87500D01*
Y83500D01*
X216233Y83500D01*
X216676Y82750D01*
X216233Y82000D01*
X206500D01*
Y74000D01*
X216276D01*
X216880Y74000D01*
X217717Y72952D01*
X217698Y72721D01*
X216238Y71262D01*
X215851Y70683D01*
X215716Y70000D01*
Y53239D01*
X209738Y47262D01*
X209352Y46683D01*
X209216Y46000D01*
Y44500D01*
X204000D01*
Y36784D01*
X199500D01*
Y38500D01*
X190500D01*
Y32500D01*
X199500D01*
Y33216D01*
X204000D01*
Y30500D01*
X209216D01*
Y22000D01*
X204000D01*
Y8000D01*
X218000D01*
Y22000D01*
X212784D01*
Y30500D01*
X218000D01*
Y44500D01*
X213819D01*
X213293Y45770D01*
X218762Y51238D01*
X219149Y51817D01*
X219284Y52500D01*
Y69261D01*
X223171Y73148D01*
X224441Y72622D01*
Y72500D01*
X224441Y72500D01*
X224674Y71329D01*
X225337Y70337D01*
X225970Y69704D01*
X225846Y68440D01*
X225674Y68326D01*
X224348Y66341D01*
X223883Y64000D01*
Y56000D01*
X224348Y53659D01*
X225674Y51674D01*
X227659Y50348D01*
X228089Y50262D01*
Y48852D01*
X228089Y48852D01*
X228322Y47681D01*
X228985Y46689D01*
X232000Y43674D01*
Y30500D01*
X246000D01*
Y44500D01*
X239826D01*
X234207Y50119D01*
Y51595D01*
X234326Y51674D01*
X235652Y53659D01*
X236117Y56000D01*
Y64000D01*
X235652Y66341D01*
X234326Y68326D01*
X233059Y69172D01*
Y70000D01*
X233059Y70000D01*
X232826Y71171D01*
X232163Y72163D01*
X230559Y73767D01*
Y83422D01*
X231230Y84074D01*
X232500Y83616D01*
Y83500D01*
X243500D01*
Y84441D01*
X246430D01*
X246829Y84174D01*
X248000Y83941D01*
X255000D01*
X255296Y84000D01*
X259500D01*
Y90000D01*
X255296D01*
X255000Y90059D01*
X249070D01*
X248671Y90326D01*
X247500Y90559D01*
X247500Y90559D01*
X243500D01*
Y91500D01*
X232500D01*
Y90559D01*
X230000D01*
X230000Y90559D01*
X229848Y90528D01*
X229222Y91699D01*
X231327Y93803D01*
X232500Y93317D01*
Y93000D01*
X243500D01*
Y101000D01*
X232500D01*
Y98784D01*
X232000D01*
X231317Y98649D01*
X230738Y98262D01*
X222458Y89981D01*
X221284Y90467D01*
Y104038D01*
X223399Y104914D01*
X225086Y106601D01*
X226000Y108806D01*
Y111194D01*
X225086Y113399D01*
X223399Y115087D01*
X221194Y116000D01*
D02*
G37*
G36*
X183500Y103480D02*
X161270D01*
Y93750D01*
X183500D01*
Y103480D01*
D02*
G37*
G36*
X158730D02*
X136500D01*
Y93750D01*
X158730D01*
Y103480D01*
D02*
G37*
G36*
X210730Y91500D02*
X206500D01*
Y88770D01*
X210730D01*
Y91500D01*
D02*
G37*
G36*
Y86230D02*
X206500D01*
Y83500D01*
X210730D01*
Y86230D01*
D02*
G37*
G36*
X259500Y81000D02*
X256270D01*
Y79270D01*
X259500D01*
Y81000D01*
D02*
G37*
G36*
X253730D02*
X250500D01*
Y79270D01*
X253730D01*
Y81000D01*
D02*
G37*
G36*
X259500Y76730D02*
X256270D01*
Y75000D01*
X259500D01*
Y76730D01*
D02*
G37*
G36*
X253730D02*
X250500D01*
Y75000D01*
X253730D01*
Y76730D01*
D02*
G37*
G36*
X243500Y82000D02*
X232500D01*
Y74000D01*
X236216D01*
Y72000D01*
X236352Y71317D01*
X236738Y70738D01*
X237000Y70477D01*
Y69403D01*
X237457Y68301D01*
X238301Y67457D01*
X239403Y67000D01*
X240597D01*
X241699Y67457D01*
X242543Y68301D01*
X243000Y69403D01*
Y70597D01*
X242543Y71699D01*
X241699Y72543D01*
X241249Y72730D01*
X241501Y74000D01*
X243500D01*
Y82000D01*
D02*
G37*
G36*
X256270Y69865D02*
Y61270D01*
X261117D01*
Y64000D01*
X260652Y66341D01*
X259326Y68326D01*
X257341Y69652D01*
X256270Y69865D01*
D02*
G37*
G36*
X253730D02*
X252659Y69652D01*
X250674Y68326D01*
X249348Y66341D01*
X248883Y64000D01*
Y61270D01*
X253730D01*
Y69865D01*
D02*
G37*
G36*
X261117Y58730D02*
X256270D01*
Y50135D01*
X257341Y50348D01*
X259326Y51674D01*
X260652Y53659D01*
X261117Y56000D01*
Y58730D01*
D02*
G37*
G36*
X253730D02*
X248883D01*
Y56000D01*
X249348Y53659D01*
X250674Y51674D01*
X252659Y50348D01*
X253730Y50135D01*
Y58730D01*
D02*
G37*
G36*
X199500Y81000D02*
X190500D01*
Y75000D01*
X193216D01*
Y70000D01*
X193351Y69317D01*
X193738Y68738D01*
X198883Y63594D01*
Y56000D01*
X199348Y53659D01*
X200674Y51674D01*
X202659Y50348D01*
X205000Y49882D01*
X207341Y50348D01*
X209326Y51674D01*
X210652Y53659D01*
X211117Y56000D01*
Y64000D01*
X210652Y66341D01*
X209326Y68326D01*
X207341Y69652D01*
X205000Y70118D01*
X202659Y69652D01*
X200674Y68326D01*
X200639Y68273D01*
X199375Y68148D01*
X196784Y70739D01*
Y75000D01*
X199500D01*
Y81000D01*
D02*
G37*
G36*
X190597Y63000D02*
X189403D01*
X188301Y62543D01*
X187457Y61699D01*
X187000Y60597D01*
Y59403D01*
X187457Y58301D01*
X188301Y57457D01*
X189403Y57000D01*
X190477D01*
X193216Y54261D01*
Y47500D01*
X190500D01*
Y41500D01*
X199500D01*
Y47500D01*
X196784D01*
Y55000D01*
X196649Y55683D01*
X196262Y56262D01*
X193000Y59523D01*
Y60597D01*
X192543Y61699D01*
X191699Y62543D01*
X190597Y63000D01*
D02*
G37*
G36*
X183500Y26250D02*
X161270D01*
Y16520D01*
X183500D01*
Y26250D01*
D02*
G37*
G36*
X158730D02*
X136500D01*
Y16520D01*
X158730D01*
Y26250D01*
D02*
G37*
G36*
X246000Y22000D02*
X240270D01*
Y16270D01*
X246000D01*
Y22000D01*
D02*
G37*
G36*
X237730D02*
X232000D01*
Y16270D01*
X237730D01*
Y22000D01*
D02*
G37*
G36*
X246000Y13730D02*
X240270D01*
Y8000D01*
X246000D01*
Y13730D01*
D02*
G37*
G36*
X237730D02*
X232000D01*
Y8000D01*
X237730D01*
Y13730D01*
D02*
G37*
G36*
X183500Y13980D02*
X161270D01*
Y4250D01*
X183500D01*
Y13980D01*
D02*
G37*
G36*
X158730D02*
X136500D01*
Y4250D01*
X158730D01*
Y13980D01*
D02*
G37*
%LPD*%
D16*
X211000Y37500D02*
Y46000D01*
X195500Y35000D02*
X211000D01*
Y37500D01*
Y15000D02*
Y35000D01*
X238000Y72000D02*
X240000Y70000D01*
X238000Y72000D02*
Y78000D01*
X195000Y110000D02*
X205000D01*
X212000Y97000D02*
Y103000D01*
X205000Y110000D02*
X212000Y103000D01*
X219500Y109500D02*
X220000Y110000D01*
X237500D02*
X245000D01*
X237500Y77500D02*
X238000Y78000D01*
X217500Y70000D02*
X222500Y75000D01*
Y87500D01*
X232000Y97000D01*
X218000Y78000D02*
X219500Y79500D01*
Y109500D01*
X232000Y97000D02*
X238000D01*
X211000Y46000D02*
X217500Y52500D01*
Y70000D01*
X212000Y78000D02*
X218000D01*
X195000Y70000D02*
X205000Y60000D01*
X195000Y70000D02*
Y78000D01*
Y87000D02*
Y90000D01*
X202000Y97000D01*
X212000D01*
X190000Y60000D02*
X195000Y55000D01*
Y44500D02*
Y55000D01*
Y35500D02*
X195500Y35000D01*
D17*
X255000Y60000D02*
D03*
X230000D02*
D03*
X205000D02*
D03*
D18*
X240000Y70000D02*
D03*
X237500Y110000D02*
D03*
X190000Y60000D02*
D03*
D19*
X160000Y104750D02*
D03*
Y15250D02*
D03*
D20*
X245000Y110000D02*
D03*
X220000D02*
D03*
X195000D02*
D03*
D21*
X239000Y37500D02*
D03*
X211000D02*
D03*
Y15000D02*
D03*
X239000D02*
D03*
D22*
X195000Y44500D02*
D03*
Y35500D02*
D03*
Y78000D02*
D03*
Y87000D02*
D03*
X255000D02*
D03*
Y78000D02*
D03*
D23*
X238000D02*
D03*
X212000Y97000D02*
D03*
Y87500D02*
D03*
Y78000D02*
D03*
X238000Y97000D02*
D03*
Y87500D02*
D03*
D24*
X239000Y35000D02*
Y37500D01*
Y41000D01*
X231148Y48852D02*
X239000Y41000D01*
X231148Y48852D02*
Y58852D01*
X230000Y60000D02*
X231148Y58852D01*
X230000Y60000D02*
Y70000D01*
X247500Y87500D02*
X248000Y87000D01*
X238000Y87500D02*
X247500D01*
X248000Y87000D02*
X255000D01*
X227500Y72500D02*
X230000Y70000D01*
X227500Y72500D02*
Y85000D01*
X230000Y87500D02*
X238000D01*
X227500Y85000D02*
X230000Y87500D01*
M02*
